<?xml version="1.0" standalone="no"?>
<!DOCTYPE svg PUBLIC "-//W3C//DTD SVG 20010904//EN"
 "http://www.w3.org/TR/2001/REC-SVG-20010904/DTD/svg10.dtd">
<svg version="1.0" xmlns="http://www.w3.org/2000/svg"
 width="700.000000pt" height="700.000000pt" viewBox="0 0 700.000000 700.000000"
 preserveAspectRatio="xMidYMid meet">
<metadata>
Created by potrace 1.11, written by Peter Selinger 2001-2013
</metadata>
<g transform="translate(0.000000,700.000000) scale(0.100000,-0.100000)"
fill="#000000" stroke="none">
<path d="M3444 6981 c-48 -30 -54 -61 -54 -303 0 -278 9 -306 106 -316 41 -4
47 -1 79 32 l34 36 1 240 c1 291 -5 310 -95 324 -30 5 -48 2 -71 -13z"/>
<path d="M2015 6603 c-54 -14 -85 -59 -79 -117 2 -24 65 -139 200 -370 37 -63
73 -90 118 -88 45 2 81 25 96 63 22 53 14 71 -177 396 -63 108 -95 131 -158
116z"/>
<path d="M4904 6591 c-17 -11 -51 -57 -83 -112 -30 -52 -70 -121 -89 -154 -63
-107 -92 -168 -92 -192 0 -60 63 -116 119 -107 49 9 76 41 169 200 135 229
145 254 132 302 -18 67 -97 99 -156 63z"/>
<path d="M3315 5860 c-33 -4 -85 -11 -115 -14 -79 -10 -240 -52 -350 -91 -566
-201 -1008 -654 -1199 -1230 -29 -90 -59 -210 -67 -275 -2 -19 -8 -57 -13 -85
-16 -91 -19 -304 -6 -425 4 -36 8 -78 10 -95 11 -119 85 -370 152 -520 54
-121 208 -374 253 -415 3 -3 25 -32 49 -65 47 -63 164 -209 191 -236 8 -9 40
-45 70 -80 30 -35 77 -88 105 -119 218 -243 254 -291 299 -397 38 -90 49 -152
60 -323 6 -89 20 -116 70 -135 35 -12 134 -14 702 -12 645 2 662 3 684 22 36
32 42 54 46 149 10 243 77 393 273 609 16 18 38 41 48 53 479 545 623 750 744
1064 28 73 73 225 83 285 3 17 8 43 12 58 32 148 37 482 8 618 -2 13 -7 42 -9
63 -7 60 -50 220 -89 326 -96 266 -249 505 -459 713 -299 296 -649 473 -1072
543 -108 17 -383 25 -480 14z m445 -229 c121 -20 324 -74 344 -93 6 -4 16 -8
23 -8 7 0 48 -16 90 -36 427 -199 762 -567 911 -999 34 -101 59 -191 67 -250
3 -22 8 -46 10 -53 11 -31 19 -167 18 -292 -1 -141 -24 -317 -53 -415 -84
-279 -163 -431 -354 -683 -79 -105 -220 -279 -240 -297 -6 -6 -40 -44 -76 -85
-35 -41 -67 -77 -70 -80 -28 -25 -206 -239 -238 -288 -93 -136 -148 -308 -152
-469 l0 -23 -535 0 c-500 0 -535 2 -536 18 -5 122 -34 242 -82 346 -33 73
-110 187 -170 253 -32 36 -134 150 -273 308 -174 197 -336 408 -421 548 -335
550 -329 1267 15 1807 80 125 135 194 242 301 82 82 274 239 293 239 4 0 32
16 63 36 175 112 448 200 709 227 67 7 345 -1 415 -12z"/>
<path d="M3315 5409 c-22 -4 -58 -9 -80 -12 -58 -7 -185 -44 -273 -79 -144
-58 -270 -133 -382 -227 -30 -25 -63 -53 -73 -61 -17 -14 -130 -139 -167 -186
-70 -87 -182 -303 -182 -350 0 -62 44 -106 106 -106 51 0 80 26 116 100 159
335 473 595 815 676 113 27 133 30 278 41 77 5 112 25 125 70 16 52 12 74 -23
110 l-33 36 -94 -2 c-51 -2 -111 -6 -133 -10z"/>
<path d="M2770 4181 c-25 -13 -39 -30 -49 -59 l-15 -41 101 -203 c107 -213
151 -315 201 -463 35 -101 90 -311 97 -367 3 -20 11 -74 19 -120 8 -45 17
-114 21 -153 3 -38 8 -90 11 -115 8 -68 13 -190 20 -475 6 -288 11 -315 66
-334 71 -25 130 3 147 67 13 50 2 616 -14 746 -2 17 -7 63 -10 101 -25 324
-115 675 -250 976 l-51 116 60 -19 c117 -37 216 -17 315 63 l60 48 48 -38
c119 -95 200 -113 329 -73 l60 19 -48 -107 c-43 -97 -103 -251 -113 -290 -2
-8 -17 -61 -34 -117 -30 -101 -75 -309 -85 -393 -3 -25 -8 -58 -10 -75 -2 -16
-7 -68 -11 -115 -4 -47 -9 -98 -11 -115 -16 -129 -25 -699 -12 -737 14 -38 58
-68 103 -68 29 0 45 8 71 34 33 33 34 37 35 112 1 146 8 428 13 534 13 255 50
512 102 710 25 95 77 257 94 295 5 11 29 67 54 125 24 58 81 177 126 264 86
167 90 186 55 240 -10 14 -34 31 -56 37 -45 14 -69 6 -246 -77 -130 -61 -182
-77 -219 -68 -14 4 -65 38 -112 76 -88 71 -116 84 -155 74 -22 -5 -101 -63
-152 -109 -66 -61 -111 -58 -265 17 -106 52 -215 96 -238 96 -9 0 -33 -8 -52
-19z"/>
<path d="M2115 4071 c-48 -20 -60 -48 -61 -141 -1 -48 2 -107 6 -131 4 -24 10
-60 13 -79 17 -121 81 -309 116 -346 61 -64 181 -18 181 69 0 16 -13 66 -29
112 -36 101 -60 211 -66 308 -8 112 -14 147 -30 171 -26 40 -83 56 -130 37z"/>
<path d="M925 5529 c-33 -17 -59 -60 -58 -97 2 -60 36 -91 213 -189 30 -17 96
-54 145 -82 50 -28 100 -51 113 -51 38 0 78 27 96 64 18 38 17 58 -4 96 -17
32 -27 39 -200 139 -80 46 -160 92 -178 102 -40 23 -101 32 -127 18z"/>
<path d="M5955 5514 c-27 -15 -114 -64 -193 -110 -79 -46 -145 -84 -148 -84
-9 0 -54 -53 -55 -64 0 -6 -2 -20 -4 -30 -6 -33 22 -84 55 -101 39 -20 86 -14
139 19 20 12 43 26 51 30 8 4 24 12 35 19 11 7 72 42 136 79 151 88 164 103
160 185 -1 17 -41 71 -54 73 -57 11 -76 8 -122 -16z"/>
<path d="M2821 1074 c-80 -33 -85 -144 -10 -188 27 -16 83 -17 684 -18 491 0
663 3 685 12 77 32 84 140 13 188 -25 16 -76 17 -685 18 -498 0 -665 -3 -687
-12z"/>
<path d="M3076 653 c-1 -1 -27 -3 -57 -4 -58 -2 -87 -17 -108 -56 -28 -54 1
-131 56 -150 44 -15 1053 -11 1080 5 35 19 53 53 53 98 0 58 -46 104 -104 104
-184 2 -918 5 -920 3z"/>
<path d="M3103 205 c-73 -31 -85 -125 -22 -177 l32 -27 373 -1 c405 0 425 2
459 54 19 29 16 96 -6 122 -34 41 -63 44 -441 44 -286 -1 -370 -4 -395 -15z"/>
</g>
</svg>
